<svg width="109" height="62" viewBox="0 0 109 62" fill="none" xmlns="http://www.w3.org/2000/svg">
<path d="M87.626 36.7473C84.7349 32.1388 83.4779 29.1495 76.8159 29.1495C75.3075 29.274 72.9193 27.9039 67.3885 24.2918C65.7545 24.0427 65.3774 25.6619 66.6344 27.4057C69.1483 29.6477 71.1595 30.8932 76.1874 33.0107C67.5142 33.2598 56.5785 33.758 53.0589 31.2669C52.9332 31.2669 52.9332 31.1423 52.8075 31.1423C50.9221 30.2705 50.4193 31.6406 52.3047 33.0107C56.8299 36.3737 63.9947 36.7473 68.6455 39.2384C78.45 42.2278 81.3411 43.9715 88.5059 47.3345" stroke="#3E3B3B" stroke-width="0.5"/>
<path d="M64.6242 32.2634C61.4818 32.2634 59.722 32.1389 56.3281 31.0179C54.4427 29.8969 52.9343 29.5232 53.5628 31.267C53.9399 31.7652 54.0656 31.8897 54.1913 31.8897" stroke="#3E3B3B" stroke-width="0.5"/>
<path d="M66.0069 32.3878C66.1326 32.3878 66.1326 32.3878 66.1326 32.2633C66.1326 32.1387 66.1326 32.1387 66.0069 32.1387V32.3878ZM66.0069 32.1387C64.4985 32.1387 63.7443 32.1387 62.9901 32.0142C62.2359 31.8896 61.4818 31.6405 60.0991 31.1423L59.9734 31.3914C61.3561 31.8896 62.1103 32.1387 62.9901 32.2633C63.7443 32.3878 64.6242 32.3878 66.1326 32.5124V32.1387H66.0069ZM58.8421 30.5195C58.465 30.2704 58.0879 30.1458 57.7108 30.0213C57.3337 29.8967 57.0823 29.8967 56.8309 29.8967C56.7052 29.8967 56.5795 29.8967 56.4538 30.0213C56.4538 30.0213 56.3281 30.1458 56.3281 30.2704C56.3281 30.5195 56.3281 30.7686 56.4538 31.2668L56.7052 31.1423C56.5795 30.7686 56.5795 30.5195 56.5795 30.395C56.5795 30.2704 56.5795 30.2704 56.7052 30.2704C56.8309 30.2704 56.8309 30.2704 56.8309 30.2704C56.9566 30.2704 57.208 30.2704 57.5851 30.395C57.9622 30.5195 58.2136 30.6441 58.7164 30.8932L58.8421 30.5195ZM59.9734 31.0177C59.5963 30.8932 59.2192 30.6441 58.8421 30.5195L58.7164 30.7686C59.0935 31.0177 59.4706 31.1423 59.9734 31.2668V31.0177Z" fill="#3E3B3B"/>
<path d="M71.6603 33.1353C68.7693 33.1353 66.7581 32.5125 63.7413 31.5161C63.3642 31.3915 62.9871 31.1424 62.61 31.0178C60.976 30.146 59.8447 29.7723 60.4732 31.3915" stroke="#3E3B3B" stroke-width="0.5"/>
<path d="M27.918 1C31.9403 2.74377 34.8314 3.36655 39.8593 3.4911C40.4878 3.4911 41.1163 3.74021 41.6191 4.11388C46.7727 8.72242 48.4068 12.9573 47.6526 23.1708C47.6526 23.4199 47.5269 23.669 47.1498 23.7936C46.647 23.9182 46.0185 23.9182 46.0185 22.9217L45.8928 17.4413" stroke="#3E3B3B" stroke-width="0.5"/>
<path d="M25.2812 6.2312C29.0522 10.217 31.6919 11.2134 37.8511 9.8433C39.1081 11.2134 40.1137 12.3344 40.9935 13.3308" stroke="#3E3B3B" stroke-width="0.5"/>
<path d="M39.1055 6.10669C43.6306 11.7117 47.7787 15.5729 46.5217 17.3167C46.396 17.4412 46.2703 17.5658 46.0189 17.5658" stroke="#3E3B3B" stroke-width="0.5"/>
<path d="M20 6.97876C20.1257 7.9752 20.6285 8.34887 21.5084 8.47342C22.2626 8.59798 22.7654 8.97164 23.0168 9.71897C23.2682 10.5909 23.6453 11.2136 24.6508 12.0855C25.0279 12.3346 25.405 12.4592 25.7821 12.5837C29.176 13.2065 30.6844 13.5802 31.9413 14.7012C33.7011 16.0713 33.7011 18.0642 33.1983 22.4236C33.0726 23.5446 34.8324 24.4165 35.7123 22.6727C36.0894 18.9361 35.9637 17.3168 35.2095 14.9503C36.2151 18.0642 36.3408 20.0571 36.2151 23.7937C36.2151 24.7901 38.352 25.4129 38.8548 24.2919C39.1061 20.3062 38.9804 18.3133 38.4777 14.7012C39.2318 18.1887 39.4832 20.3062 39.2318 24.6656C39.2318 25.5375 41.3687 25.9111 41.3687 24.6656C41.9972 20.4307 41.9972 18.3133 40.9916 14.4521L40.8659 13.4556" stroke="#3E3B3B" stroke-width="0.5"/>
<path d="M40.9922 13.4556C43.8832 16.5694 45.2659 17.5659 46.0201 17.5659" stroke="#3E3B3B" stroke-width="0.5"/>
<path d="M67.7654 16.3203L46.6481 4.36304L42.8771 10.8399C49.162 17.0677 47.0252 20.5552 41.1173 13.8292L38.9805 17.5659L60.0978 29.5232L67.7654 16.3203Z" fill="#FAD362"/>
<path d="M60.0978 29.5231L38.9805 17.4412L43.0028 16.5694C44.6369 16.0711 44.0084 17.4412 46.0196 17.4412C47.2766 17.0676 46.0196 15.5729 47.0252 15.5729L55.0699 13.7046L60.0978 29.5231Z" fill="#F4C158"/>
<path d="M39.6094 17.815L59.5954 29.2741L55.0703 14.0784C55.0703 14.0784 49.2881 15.4485 46.6485 16.1958C46.8999 17.6905 45.3915 17.9396 44.5116 16.694L39.6094 17.815Z" fill="#FAD362"/>
<path d="M54.6931 19.4342L67.7658 16.3203L46.6484 4.36304L50.5451 17.0677L54.6931 19.4342Z" fill="#DA8542"/>
<path d="M55.0702 18.936L67.7658 16.4449L46.6484 4.36304L50.7965 16.5694L55.0702 18.936Z" fill="#F4C158"/>
<path d="M37.9766 10.0924C41.9989 14.4518 44.5129 17.1921 45.5185 17.4412C47.2782 17.8148 47.0268 15.5728 45.0157 13.2063L39.2335 6.2312" stroke="#3E3B3B" stroke-width="0.5"/>
<path d="M9.92413 54.5801H12.736V59.4003C12.0744 59.8385 11.0819 60.2767 10.0895 60.5689C9.09712 60.861 8.1047 61.0071 7.11229 61.0071C5.62367 61.0071 4.46586 60.7149 3.30804 60.2767C2.15023 59.6925 1.32322 58.9621 0.661609 58.0857C0.165402 56.9172 0 55.8947 0 54.7262C0 53.5576 0.330804 52.5352 0.992413 51.5127C1.65402 50.4902 2.48103 49.7599 3.63885 49.3217C4.79666 48.7374 6.11988 48.4453 7.4431 48.4453C8.60091 48.4453 9.75873 48.5914 10.7511 49.0296C11.7436 49.3217 12.5706 49.906 13.2322 50.6363L11.2473 52.243C10.2549 51.3666 9.09712 50.9284 7.7739 50.9284C6.94689 50.9284 6.11988 51.0745 5.45827 51.3666C4.79666 51.6588 4.30046 52.097 3.80425 52.6812C3.47344 53.2655 3.30804 53.9958 3.30804 54.7262C3.30804 55.4565 3.47344 56.1869 3.80425 56.7711C4.13505 57.3554 4.63126 57.7936 5.29287 58.0857C5.95448 58.3779 6.78149 58.5239 7.6085 58.5239C8.43551 58.5239 9.26252 58.3779 10.0895 57.9397V54.5801H9.92413ZM15.5478 48.0071H18.525V60.7149H15.5478V48.0071ZM26.2989 60.861C25.1411 60.861 24.1487 60.7149 23.3217 60.2767C22.4947 59.8385 21.8331 59.2543 21.3369 58.5239C20.8407 57.7936 20.6753 56.9172 20.6753 56.0408C20.6753 55.1644 20.8407 54.288 21.3369 53.5576C21.8331 52.8273 22.4947 52.243 23.3217 51.8048C24.1487 51.3666 25.1411 51.2206 26.2989 51.2206C27.4568 51.2206 28.4492 51.3666 29.2762 51.8048C30.1032 52.243 30.7648 52.8273 31.261 53.5576C31.7572 54.288 31.9226 55.1644 31.9226 56.0408C31.9226 56.9172 31.7572 57.7936 31.261 58.5239C30.7648 59.2543 30.1032 59.8385 29.2762 60.2767C28.4492 60.7149 27.4568 60.861 26.2989 60.861ZM26.2989 58.67C27.1259 58.67 27.7876 58.3779 28.2838 57.9397C28.78 57.5015 29.1108 56.9172 29.1108 56.0408C29.1108 55.3104 28.78 54.5801 28.2838 54.1419C27.7876 53.7037 27.1259 53.4116 26.2989 53.4116C25.4719 53.4116 24.8103 53.7037 24.3141 54.1419C23.8179 54.5801 23.4871 55.1644 23.4871 56.0408C23.4871 56.7711 23.8179 57.5015 24.3141 57.9397C24.9757 58.3779 25.6373 58.67 26.2989 58.67ZM40.3581 51.3666C41.3505 51.3666 42.1775 51.5127 43.0046 51.9509C43.8316 52.3891 44.4932 52.8273 44.824 53.5576C45.3202 54.288 45.4856 55.1644 45.4856 56.0408C45.4856 57.0633 45.3202 57.7936 44.824 58.5239C44.3278 59.2543 43.6662 59.8385 43.0046 60.1307C42.1775 60.5689 41.3505 60.7149 40.3581 60.7149C38.8695 60.7149 37.8771 60.2767 37.0501 59.5464V60.7149H34.0728V48.0071H37.0501V52.5352C37.8771 51.8048 39.0349 51.3666 40.3581 51.3666ZM39.8619 58.67C40.6889 58.67 41.3505 58.3779 41.8467 57.9397C42.3429 57.5015 42.6737 56.9172 42.6737 56.0408C42.6737 55.3104 42.3429 54.5801 41.8467 54.1419C41.3505 53.7037 40.6889 53.4116 39.8619 53.4116C39.0349 53.4116 38.3733 53.7037 37.8771 54.1419C37.3809 54.5801 37.2155 55.1644 37.2155 56.0408C37.2155 56.7711 37.3809 57.5015 37.8771 57.9397C38.3733 58.3779 39.0349 58.67 39.8619 58.67ZM51.6055 51.3666C53.2595 51.3666 54.4173 51.6588 55.4097 52.3891C56.2367 53.1194 56.7329 54.1419 56.7329 55.4565V60.7149H53.9211V59.5464C53.4249 60.4228 52.2671 60.861 50.7785 60.861C49.9514 60.861 49.2898 60.7149 48.6282 60.5689C47.9666 60.2767 47.6358 59.9846 47.305 59.5464C46.9742 59.1082 46.8088 58.67 46.8088 58.0857C46.8088 57.2093 47.1396 56.6251 47.9666 56.0408C48.6282 55.6026 49.786 55.3104 51.4401 55.3104H53.9211C53.9211 54.7262 53.7557 54.288 53.2595 53.9958C52.9287 53.7037 52.2671 53.5576 51.4401 53.5576C50.9439 53.5576 50.2822 53.7037 49.786 53.8498C49.2898 53.9958 48.7936 54.1419 48.4628 54.434L47.305 52.5352C47.8012 52.243 48.6282 51.9509 49.2898 51.6588C49.9514 51.5127 50.7785 51.3666 51.6055 51.3666ZM51.4401 59.1082C51.9363 59.1082 52.4325 58.9621 52.7633 58.8161C53.0941 58.67 53.4249 58.2318 53.5903 57.9397V57.0633H51.4401C50.1168 57.0633 49.6206 57.3554 49.6206 58.0857C49.6206 58.3779 49.786 58.67 50.1168 58.9621C50.4476 58.9621 50.7785 59.1082 51.4401 59.1082ZM59.3794 48.0071H62.3566V60.7149H59.3794V48.0071ZM71.2883 48.7374C72.4461 48.7374 73.6039 48.8835 74.431 49.3217C75.258 49.6138 76.085 50.1981 76.4158 50.7824C76.912 51.3666 77.0774 52.243 77.0774 53.1194C77.0774 53.9958 76.912 54.7262 76.4158 55.4565C75.9196 56.0408 75.258 56.6251 74.431 56.9172C73.6039 57.2093 72.4461 57.5015 71.2883 57.5015H68.4765V60.7149H65.3338V48.7374H71.2883ZM71.1229 55.1644C72.1153 55.1644 72.7769 55.0183 73.2731 54.5801C73.7693 54.1419 73.9348 53.7037 73.9348 52.9734C73.9348 52.243 73.7693 51.8048 73.2731 51.3666C72.7769 50.9284 72.1153 50.7824 71.1229 50.7824H68.4765V55.0183H71.1229V55.1644ZM84.1897 60.861C83.0319 60.861 82.0395 60.7149 81.2124 60.2767C80.3854 59.8385 79.7238 59.2543 79.2276 58.5239C78.7314 57.7936 78.566 56.9172 78.566 56.0408C78.566 55.1644 78.7314 54.288 79.2276 53.5576C79.7238 52.8273 80.3854 52.243 81.2124 51.8048C82.0395 51.3666 83.0319 51.2206 84.1897 51.2206C85.3475 51.2206 86.3399 51.3666 87.1669 51.8048C87.9939 52.243 88.6555 52.8273 89.1517 53.5576C89.648 54.288 89.8134 55.1644 89.8134 56.0408C89.8134 56.9172 89.648 57.7936 89.1517 58.5239C88.6555 59.2543 87.9939 59.8385 87.1669 60.2767C86.3399 60.7149 85.3475 60.861 84.1897 60.861ZM84.1897 58.67C85.0167 58.67 85.6783 58.3779 86.1745 57.9397C86.6707 57.5015 87.0015 56.9172 87.0015 56.0408C87.0015 55.3104 86.6707 54.5801 86.1745 54.1419C85.6783 53.7037 85.0167 53.4116 84.1897 53.4116C83.3627 53.4116 82.7011 53.7037 82.2049 54.1419C81.7086 54.5801 81.3778 55.1644 81.3778 56.0408C81.3778 56.7711 81.7086 57.5015 82.2049 57.9397C82.8665 58.3779 83.5281 58.67 84.1897 58.67ZM95.437 60.861C94.61 60.861 93.783 60.7149 92.956 60.5689C92.129 60.4228 91.4674 60.1307 90.9712 59.8385L91.9636 57.9397C92.4598 58.2318 92.956 58.3779 93.6176 58.5239C94.2792 58.67 94.9408 58.8161 95.6024 58.8161C96.9256 58.8161 97.5873 58.5239 97.5873 57.9397C97.5873 57.6475 97.4219 57.5015 97.091 57.3554C96.7602 57.2093 96.264 57.2093 95.437 57.0633C94.61 56.9172 93.9484 56.7711 93.2868 56.6251C92.7906 56.479 92.2944 56.1869 91.7982 55.8947C91.4674 55.4565 91.1366 55.0183 91.1366 54.288C91.1366 53.7037 91.302 53.1194 91.6328 52.6812C91.9636 52.243 92.6252 51.8048 93.2868 51.6588C93.9484 51.3666 94.9408 51.2206 95.9332 51.2206C96.5948 51.2206 97.4219 51.3666 98.0835 51.5127C98.7451 51.6588 99.4067 51.8048 99.9029 52.097L98.9105 53.9958C97.9181 53.5576 96.9256 53.2655 95.9332 53.2655C95.2716 53.2655 94.7754 53.4116 94.4446 53.5576C94.1138 53.7037 93.9484 53.9958 93.9484 54.1419C93.9484 54.434 94.1138 54.5801 94.4446 54.7262C94.7754 54.8723 95.2716 55.0183 96.0986 55.0183C96.9256 55.1644 97.5873 55.3105 98.2489 55.4565C98.7451 55.6026 99.2413 55.8947 99.7375 56.1869C100.068 56.6251 100.399 57.0633 100.399 57.7936C100.399 58.3779 100.234 58.8161 99.7375 59.2543C99.2413 59.6925 98.7451 59.9846 98.0835 60.2767C97.4219 60.7149 96.5948 60.861 95.437 60.861ZM109 60.2767C108.669 60.4228 108.338 60.5689 107.842 60.7149C107.346 60.861 107.015 60.861 106.519 60.861C105.196 60.861 104.369 60.5689 103.542 59.9846C102.88 59.4003 102.549 58.67 102.549 57.5015V53.7037H100.895V51.6588H102.549V49.4678H105.527V51.6588H108.173V53.7037H105.527V57.5015C105.527 57.9397 105.692 58.2318 105.857 58.3779C106.023 58.5239 106.354 58.67 106.85 58.67C107.346 58.67 107.677 58.5239 108.008 58.3779L109 60.2767Z" fill="#3E3B3B"/>
</svg>
