<svg width="35" height="36" viewBox="0 0 35 36" fill="none" xmlns="http://www.w3.org/2000/svg">
<path d="M34.7864 33.7624L24.1369 23.1129C26.3489 20.6569 27.7084 17.4188 27.7084 13.8612C27.7083 6.22211 21.4934 0.00708008 13.8542 0.00708008C6.21503 0.00708008 0 6.22211 0 13.8613C0 21.5004 6.21503 27.7155 13.8542 27.7155C17.4118 27.7155 20.6499 26.356 23.1059 24.144L33.7553 34.7935C33.8977 34.9358 34.0843 35.0071 34.2709 35.0071C34.4574 35.0071 34.644 34.9358 34.7864 34.7935C35.0712 34.5086 35.0712 34.0472 34.7864 33.7624ZM13.8542 26.2571C7.01969 26.2571 1.45838 20.6965 1.45838 13.8613C1.45838 7.02608 7.01969 1.46539 13.8542 1.46539C20.6887 1.46539 26.25 7.02602 26.25 13.8613C26.25 20.6965 20.6887 26.2571 13.8542 26.2571Z" fill="#3E3B3B"/>
</svg>
