<svg width="37" height="36" viewBox="0 0 37 36" fill="none" xmlns="http://www.w3.org/2000/svg">
<path d="M4.92628 30.5652C5.1912 30.7019 11.4957 33.9132 18.5 33.9132C26.0885 33.9132 31.8527 30.6912 32.0943 30.554C32.1799 30.5054 32.2508 30.4367 32.3 30.3545C32.3491 30.2723 32.375 30.1795 32.375 30.0851C32.375 25.6695 30.9436 21.629 28.3447 18.7072C26.5266 16.6633 24.2455 15.2701 21.7296 14.6288C23.2696 13.9355 24.5146 12.7673 25.26 11.3161C26.0053 9.86489 26.2067 8.21705 25.831 6.64328C25.4554 5.06951 24.525 3.66342 23.1927 2.65602C21.8605 1.64863 20.2056 1.09985 18.5 1.09985C16.7944 1.09985 15.1395 1.64863 13.8073 2.65602C12.475 3.66342 11.5446 5.06951 11.169 6.64328C10.7933 8.21705 10.9947 9.86489 11.74 11.3161C12.4854 12.7673 13.7304 13.9355 15.2704 14.6288C12.7545 15.2701 10.4734 16.6635 8.65533 18.7072C6.05637 21.629 4.625 25.6695 4.625 30.0851C4.625 30.1833 4.65298 30.2798 4.70599 30.3642C4.75901 30.4487 4.8351 30.5181 4.92628 30.5652ZM12.1406 8.21008C12.1406 7.0203 12.5136 5.85724 13.2124 4.86798C13.9111 3.87872 14.9043 3.10768 16.0664 2.65237C17.2284 2.19706 18.5071 2.07793 19.7407 2.31005C20.9742 2.54216 22.1074 3.11509 22.9968 3.95639C23.8861 4.79769 24.4918 5.86958 24.7372 7.03649C24.9826 8.20341 24.8566 9.41295 24.3753 10.5122C23.894 11.6114 23.0789 12.5509 22.0331 13.2119C20.9873 13.8729 19.7578 14.2257 18.5 14.2257C16.814 14.2239 15.1976 13.5895 14.0054 12.4618C12.8132 11.334 12.1425 9.80497 12.1406 8.21008ZM9.54 19.4114C11.8877 16.7726 15.0694 15.3195 18.5 15.3195C21.9306 15.3195 25.1123 16.7726 27.46 19.4114C29.8217 22.0663 31.1496 25.7333 31.2161 29.766C29.979 30.3995 24.8383 32.8195 18.5 32.8195C12.6385 32.8195 7.11816 30.3852 5.78414 29.7531C5.85352 25.7253 7.18082 22.0635 9.54 19.4114Z" fill="#3E3B3B"/>
</svg>
